# xmcd
#
# Track frame offsets: 
#        150
#        16950
#        36329
#        55897
#        71474
#        91116
#        113353
#        134483
#        150717
#        169648
#        193080
#        211907
#        234266
#        255632
#        280155
#        296657
#
# Disc length: 4133 seconds
#
# Revision: 0
# Processed by: cddbd v1.5.2PL0 Copyright (c) Steve Scherf et al.
# Submitted via: ExactAudioCopyFreeDBPlugin 1.0
#
DISCID=d9102310
DTITLE=Various Artist - Танцевальная Zона 2
DYEAR=2001
DGENRE=Italodance
TTITLE0=Prezioso feat. Marvin - Let Me Stay (Album Version)
TTITLE1=Cassandra - Just Tell Me Why (MPJ Club Mix)
TTITLE2=Mash - Are You Ready? (B-Pop Mix)
TTITLE3=Billy More - The New Millenium Girl (Uncensured Extended Mix)
TTITLE4=The Soundlovers - Wonderful Life (Long Party Mix)
TTITLE5=A Seven - Piece Of Heaven (Extended Mix)
TTITLE6=Vanni G - Time Is Over (Extended)
TTITLE7=Miranda - Special DJ (Album Version)
TTITLE8=Raffa - Spinning Around (Def In Remix)
TTITLE9=Natascha Hagen - Sweet La La Love (Europop Remix)
TTITLE10=Julia St. Louis - Wonder World (Original Mix)
TTITLE11=Floorfilla - Anthem # 4 (Hyped Mix)
TTITLE12=Alicia - Supergirl (Glass Twins Club Mix)
TTITLE13=More - Around The World (Extended Club Mix)
TTITLE14=Green House feat. Gerideau - All I Need (The Green Club Versi
TTITLE14=on)
TTITLE15=Fiorello - Azzurro (BMR`s Beatcut)
EXTD=
EXTT0=
EXTT1=
EXTT2=
EXTT3=
EXTT4=
EXTT5=
EXTT6=
EXTT7=
EXTT8=
EXTT9=
EXTT10=
EXTT11=
EXTT12=
EXTT13=
EXTT14=
EXTT15=
PLAYORDER=
